<?xml version="1.0" standalone="no"?>
<!DOCTYPE svg PUBLIC "-//W3C//DTD SVG 20010904//EN"
 "http://www.w3.org/TR/2001/REC-SVG-20010904/DTD/svg10.dtd">
<svg version="1.0" xmlns="http://www.w3.org/2000/svg"
 width="300.000000pt" height="300.000000pt" viewBox="0 0 300.000000 300.000000"
 preserveAspectRatio="xMidYMid meet">

<g transform="translate(0.000000,300.000000) scale(0.100000,-0.100000)"
fill="#000000" stroke="none">
<path d="M259 2978 c-163 -57 -255 -196 -247 -371 4 -102 36 -176 105 -245
148 -148 379 -147 528 3 59 58 91 120 104 202 44 278 -225 504 -490 411z"/>
<path d="M1379 2978 c-162 -57 -255 -196 -248 -371 5 -104 46 -195 115 -256
267 -235 668 -22 622 331 -29 227 -270 372 -489 296z"/>
<path d="M2508 2981 c-105 -34 -172 -92 -225 -193 -25 -48 -28 -63 -28 -158 0
-99 2 -109 33 -172 134 -273 530 -273 664 0 31 63 33 73 33 172 0 101 -1 108
-34 168 -66 122 -176 191 -316 198 -50 3 -86 -1 -127 -15z"/>
<path d="M304 1870 c-108 -23 -209 -103 -260 -206 -26 -53 -29 -69 -29 -159 0
-93 2 -105 32 -166 39 -79 102 -140 181 -177 49 -23 70 -27 152 -27 82 0 103
4 152 27 67 31 140 96 174 154 38 64 56 165 43 244 -12 79 -59 168 -112 216
-85 77 -226 117 -333 94z"/>
<path d="M1424 1870 c-108 -23 -215 -108 -262 -208 -24 -51 -27 -69 -27 -162
0 -90 4 -112 24 -153 37 -75 104 -142 179 -179 61 -30 74 -33 162 -33 82 0
103 4 152 27 32 15 80 48 108 74 143 134 150 367 16 521 -75 86 -236 138 -352
113z"/>
<path d="M2542 1870 c-117 -25 -229 -122 -272 -237 -32 -85 -25 -214 15 -296
35 -71 107 -140 183 -175 49 -23 70 -27 152 -27 82 0 103 4 152 27 76 35 148
104 184 175 26 53 29 67 29 163 0 93 -3 112 -27 162 -70 151 -253 242 -416
208z"/>
<path d="M265 737 c-90 -30 -188 -118 -228 -205 -32 -68 -31 -236 1 -305 30
-66 114 -151 181 -184 50 -25 67 -28 161 -28 95 0 111 3 162 28 281 138 281
536 0 674 -48 23 -71 28 -147 30 -53 2 -106 -3 -130 -10z"/>
<path d="M1383 736 c-60 -19 -104 -49 -157 -106 -74 -79 -91 -125 -91 -250 0
-87 4 -113 22 -153 31 -66 115 -152 182 -184 50 -25 67 -28 161 -28 95 0 111
3 162 28 280 137 280 537 0 674 -48 23 -71 28 -147 30 -55 2 -106 -3 -132 -11z"/>
<path d="M2489 731 c-111 -44 -204 -146 -229 -251 -17 -72 -9 -193 18 -253 29
-65 113 -151 181 -184 50 -25 67 -28 161 -28 94 0 111 3 161 28 67 32 151 118
182 184 18 40 22 66 22 153 0 95 -3 111 -28 162 -35 71 -104 140 -176 175 -74
37 -220 44 -292 14z"/>
</g>
</svg>
